<?xml version="1.0" encoding="UTF-8"?>
<svg width="28px" height="28px" viewBox="0 0 28 28" version="1.1" xmlns="http://www.w3.org/2000/svg" xmlns:xlink="http://www.w3.org/1999/xlink">
    <title>DAI</title>
    <defs>
        <linearGradient x1="50%" y1="0%" x2="50%" y2="100%" id="linearGradient-1">
            <stop stop-color="#F9AB1B" offset="0%"></stop>
            <stop stop-color="#FBC858" offset="100%"></stop>
        </linearGradient>
    </defs>
    <g id="页面-1" stroke="none" stroke-width="1" fill="none" fill-rule="evenodd">
        <g id="Buy-and-sell" transform="translate(-454.000000, -488.000000)">
            <g id="DAI" transform="translate(454.000000, 488.000000)">
                <circle id="椭圆形" fill="url(#linearGradient-1)" cx="14" cy="14" r="14"></circle>
                <path d="M14.2485542,7 L9.24763135,7 L9.24756983,11.5228867 L8.16666667,11.5228867 L8.16666667,12.8300726 L9.24756983,12.8300726 L9.24756983,14.7908207 L8.16666667,14.7908207 L8.16666667,16.0980374 L9.24756983,16.0980374 L9.24760059,21 L14.092285,21 L14.1577765,20.9997847 C16.3137382,20.9869878 17.9719146,20.3401932 19.1322444,19.0784115 C19.8558816,18.2883906 20.3484988,17.2913437 20.6047434,16.0980374 L22.1666667,16.0980374 L22.1666667,14.7908515 L20.7855297,14.7908822 C20.8033407,14.5344223 20.8122924,14.2707641 20.8122924,14 C20.8122924,13.5930848 20.794143,13.2030269 20.7580596,12.8300418 L22.1666667,12.8300418 L22.1666667,11.5228867 L20.5413744,11.5228559 C20.2872831,10.4797281 19.8553279,9.61000369 19.2494771,8.92158853 C18.1164636,7.62744555 16.4560108,7 14.2485542,7 L14.2485542,7 Z M10.8493909,16.0980066 L18.9872647,16.0980682 C18.7715024,16.9299865 18.413652,17.6174788 17.9210656,18.1568537 C17.0029224,19.1176326 15.6354743,19.6078196 13.8187215,19.6078196 L10.8493909,19.6078196 L10.8493909,16.0980066 L10.8493909,16.0980066 Z M19.1707272,12.8300418 C19.2101329,13.1963517 19.2299434,13.586348 19.2299434,14 L19.2298204,14.0545712 C19.2285591,14.3084779 19.2185001,14.5538944 19.199797,14.7908515 L10.8493909,14.7908515 L10.8493909,12.8300418 L19.1707272,12.8300418 Z M13.9945859,8.39218039 C15.8308416,8.39218039 17.1592223,8.86274148 18.0187646,9.82352036 L18.0426664,9.85074443 C18.4272487,10.292851 18.7199151,10.8502215 18.9184508,11.5228559 L10.8493909,11.5228559 L10.8493909,8.39218039 L13.9945859,8.39218039 Z" id="形状" fill="#FFFFFF" fill-rule="nonzero"></path>
            </g>
        </g>
    </g>
</svg>