<?xml version="1.0" encoding="UTF-8"?>
<svg width="28px" height="28px" viewBox="0 0 28 28" version="1.1" xmlns="http://www.w3.org/2000/svg" xmlns:xlink="http://www.w3.org/1999/xlink">
    <title>SUSD</title>
    <g id="页面-1" stroke="none" stroke-width="1" fill="none" fill-rule="evenodd">
        <g id="Buy-and-sell" transform="translate(-480.000000, -645.000000)" fill-rule="nonzero">
            <g id="SUSD" transform="translate(480.000000, 645.000000)">
                <ellipse id="椭圆形" fill="#1E1A31" cx="14" cy="14.0602" rx="14" ry="13.846"></ellipse>
                <g id="编组" transform="translate(7.000000, 7.933333)" fill="#FFFFFF">
                    <path d="M4.98866667,5.2164 C5.3634,5.2164 5.66766667,5.5244 5.66766667,5.9052 C5.66766667,6.28553333 5.3634,6.594 4.9882,6.594 L3.22513333,6.594 C1.5176,6.594 0.133466667,5.19026667 0.133466667,3.45893333 C0.133466667,1.7276 1.5176,0.324333333 3.22513333,0.324333333 L7.77233333,0.324333333 C8.14753333,0.324333333 8.45133333,0.632333333 8.45133333,1.01266667 C8.45133333,1.393 8.14753333,1.70146667 7.77233333,1.70146667 L3.22466667,1.70146667 C2.26753333,1.70146667 1.49146667,2.48826667 1.49146667,3.45893333 C1.49146667,4.4296 2.26753333,5.2164 3.22466667,5.2164 L4.98773333,5.2164 L4.98866667,5.2164 Z" id="路径"></path>
                    <path d="M3.5966,6.594 C3.2214,6.594 2.91713333,6.28553333 2.91713333,5.9052 C2.91713333,5.52486667 3.2214,5.2164 3.5966,5.2164 L5.35966667,5.2164 C7.0672,5.2164 8.45133333,6.62013333 8.45133333,8.35146667 C8.45133333,10.0828 7.0672,11.4860667 5.35966667,11.4860667 L0.812,11.4860667 C0.4368,11.4860667 0.133,11.1780667 0.133,10.7972667 C0.133,10.4169333 0.4368,10.1089333 0.812,10.1089333 L5.3592,10.1089333 C6.31633333,10.1089333 7.0924,9.32213333 7.0924,8.35146667 C7.0924,7.3808 6.31633333,6.594 5.3592,6.594 L3.59613333,6.594 L3.5966,6.594 Z" id="路径"></path>
                    <polygon id="路径" fill-opacity="0.5" points="1.3496 11.2079333 0.245 10.4057333 7.1904 0.578666667 8.295 1.38133333"></polygon>
                </g>
                <g id="编组" transform="translate(18.623733, 13.361600) rotate(-90.000000) translate(-18.623733, -13.361600) translate(12.790400, 11.028267)">
                    <g id="a-link" fill="#000000">
                        <path d="M1.09666667,0.255266667 L1.09666667,2.45746667 C1.09666667,2.76453333 1.15546667,2.996 1.27306667,3.1514 C1.39066667,3.3068 1.5764,3.38473333 1.82933333,3.38473333 C2.08273333,3.38473333 2.26893333,3.3068 2.3884,3.1514 C2.50786667,2.996 2.5676,2.76453333 2.5676,2.45746667 L2.5676,0.255266667 L3.37026667,0.255266667 L3.37026667,2.41406667 C3.37026667,2.95633333 3.23913333,3.37026667 2.97686667,3.6554 C2.7146,3.94146667 2.3324,4.08473333 1.82933333,4.08473333 C1.32673333,4.08473333 0.945,3.94146667 0.6846,3.6554 C0.424666667,3.37073333 0.294,2.9568 0.294,2.41453333 L0.294,0.255266667 L1.09666667,0.255266667 Z M4.62186667,2.8154 C4.63586667,3.003 4.71193333,3.1542 4.84913333,3.26806667 C4.98633333,3.38193333 5.16926667,3.43886667 5.39746667,3.43886667 C5.58646667,3.43886667 5.74093333,3.39826667 5.8604,3.31706667 C5.97581242,3.2435198 6.04391473,3.11458652 6.0396,2.9778 C6.0396,2.87653333 6.00646667,2.7958 5.94066667,2.73653333 C5.8744,2.6768 5.782,2.62966667 5.66253333,2.5956 C5.47949247,2.54643985 5.2947262,2.50394517 5.1086,2.4682 C4.86266667,2.42106667 4.65593333,2.36086667 4.48793333,2.2862 C4.32401856,2.21508632 4.18254283,2.10071198 4.07866667,1.95533333 C3.97366667,1.80926667 3.92093333,1.61466667 3.92093333,1.37246667 C3.92093333,1.15173333 3.98066667,0.9548 4.10013333,0.7812 C4.22601604,0.602414672 4.39790601,0.461000498 4.5976,0.371933333 C4.80993333,0.272533333 5.0498,0.2226 5.3172,0.2226 C5.59206667,0.2226 5.83893333,0.273933333 6.05826667,0.377066667 C6.2776,0.4802 6.45026667,0.622066667 6.5772,0.803133333 C6.70331342,0.982643063 6.77139159,1.19648669 6.77226667,1.41586667 L5.98593333,1.41586667 C5.97309567,1.26303354 5.89987006,1.12162079 5.78246667,1.02293333 C5.66486667,0.923066667 5.50993333,0.8736 5.3172,0.8736 C5.13893333,0.8736 4.99613333,0.9114 4.88926667,0.987466667 C4.78193333,1.06353333 4.72873333,1.1718 4.72873333,1.31273333 C4.72873333,1.414 4.76093333,1.49286667 4.82533333,1.54886667 C4.88926667,1.60486667 4.98026667,1.65013333 5.09786667,1.6842 C5.21546667,1.71873333 5.39746667,1.75933333 5.64386667,1.80646667 C5.89306667,1.85313333 6.10353333,1.91193333 6.2748,1.98286667 C6.44606667,2.05286667 6.5842,2.1602 6.6892,2.30253333 C6.79466667,2.44533333 6.8474,2.6362 6.8474,2.87466667 C6.8474,3.10613333 6.78486667,3.31333333 6.6598,3.4958 C6.5352,3.67826667 6.36113333,3.82246667 6.13853333,3.927 C5.90287273,4.03455902 5.64621494,4.0882818 5.3872,4.08426667 C5.08713333,4.08426667 4.82066667,4.0292 4.58686667,3.91906667 C4.3658629,3.81914363 4.17640335,3.66066895 4.039,3.4608 C3.90740055,3.26703262 3.836561,3.03842886 3.83553333,2.8042 L4.62186667,2.8154 L4.62186667,2.8154 Z M7.32853333,0.255266667 L8.62866667,0.255266667 C9.00293333,0.255266667 9.33333333,0.335533333 9.6208,0.496533333 C9.90241786,0.651744158 10.1329405,0.885346953 10.2844,1.169 C10.4393333,1.45646667 10.5168,1.785 10.5168,2.15366667 C10.5168,2.52233333 10.4393333,2.8504 10.2844,3.13833333 C10.1328681,3.42181402 9.90235227,3.65524778 9.6208,3.81033333 C9.3338,3.97133333 9.00293333,4.0516 8.62866667,4.0516 L7.32853333,4.0516 L7.32853333,0.255266667 L7.32853333,0.255266667 Z M8.62866667,3.374 C8.96746667,3.374 9.23066667,3.26246667 9.41733333,3.04033333 C9.60493333,2.81773333 9.69826667,2.52233333 9.69826667,2.15366667 C9.69826667,1.785 9.60493333,1.48913333 9.4178,1.267 C9.2302,1.04393333 8.96746667,0.933333333 8.62866667,0.933333333 L8.1312,0.933333333 L8.1312,3.374 L8.62866667,3.374 Z" id="a"></path>
                    </g>
                    <g id="a-link" fill="#FFFFFF">
                        <path d="M1.09666667,0.255266667 L1.09666667,2.45746667 C1.09666667,2.76453333 1.15546667,2.996 1.27306667,3.1514 C1.39066667,3.3068 1.5764,3.38473333 1.82933333,3.38473333 C2.08273333,3.38473333 2.26893333,3.3068 2.3884,3.1514 C2.50786667,2.996 2.5676,2.76453333 2.5676,2.45746667 L2.5676,0.255266667 L3.37026667,0.255266667 L3.37026667,2.41406667 C3.37026667,2.95633333 3.23913333,3.37026667 2.97686667,3.6554 C2.7146,3.94146667 2.3324,4.08473333 1.82933333,4.08473333 C1.32673333,4.08473333 0.945,3.94146667 0.6846,3.6554 C0.424666667,3.37073333 0.294,2.9568 0.294,2.41453333 L0.294,0.255266667 L1.09666667,0.255266667 Z M4.62186667,2.8154 C4.63586667,3.003 4.71193333,3.1542 4.84913333,3.26806667 C4.98633333,3.38193333 5.16926667,3.43886667 5.39746667,3.43886667 C5.58646667,3.43886667 5.74093333,3.39826667 5.8604,3.31706667 C5.97581242,3.2435198 6.04391473,3.11458652 6.0396,2.9778 C6.0396,2.87653333 6.00646667,2.7958 5.94066667,2.73653333 C5.8744,2.6768 5.782,2.62966667 5.66253333,2.5956 C5.47949247,2.54643985 5.2947262,2.50394517 5.1086,2.4682 C4.86266667,2.42106667 4.65593333,2.36086667 4.48793333,2.2862 C4.32401856,2.21508632 4.18254283,2.10071198 4.07866667,1.95533333 C3.97366667,1.80926667 3.92093333,1.61466667 3.92093333,1.37246667 C3.92093333,1.15173333 3.98066667,0.9548 4.10013333,0.7812 C4.22601604,0.602414672 4.39790601,0.461000498 4.5976,0.371933333 C4.80993333,0.272533333 5.0498,0.2226 5.3172,0.2226 C5.59206667,0.2226 5.83893333,0.273933333 6.05826667,0.377066667 C6.2776,0.4802 6.45026667,0.622066667 6.5772,0.803133333 C6.70331342,0.982643063 6.77139159,1.19648669 6.77226667,1.41586667 L5.98593333,1.41586667 C5.97309567,1.26303354 5.89987006,1.12162079 5.78246667,1.02293333 C5.66486667,0.923066667 5.50993333,0.8736 5.3172,0.8736 C5.13893333,0.8736 4.99613333,0.9114 4.88926667,0.987466667 C4.78193333,1.06353333 4.72873333,1.1718 4.72873333,1.31273333 C4.72873333,1.414 4.76093333,1.49286667 4.82533333,1.54886667 C4.88926667,1.60486667 4.98026667,1.65013333 5.09786667,1.6842 C5.21546667,1.71873333 5.39746667,1.75933333 5.64386667,1.80646667 C5.89306667,1.85313333 6.10353333,1.91193333 6.2748,1.98286667 C6.44606667,2.05286667 6.5842,2.1602 6.6892,2.30253333 C6.79466667,2.44533333 6.8474,2.6362 6.8474,2.87466667 C6.8474,3.10613333 6.78486667,3.31333333 6.6598,3.4958 C6.5352,3.67826667 6.36113333,3.82246667 6.13853333,3.927 C5.90287273,4.03455902 5.64621494,4.0882818 5.3872,4.08426667 C5.08713333,4.08426667 4.82066667,4.0292 4.58686667,3.91906667 C4.3658629,3.81914363 4.17640335,3.66066895 4.039,3.4608 C3.90740055,3.26703262 3.836561,3.03842886 3.83553333,2.8042 L4.62186667,2.8154 L4.62186667,2.8154 Z M7.32853333,0.255266667 L8.62866667,0.255266667 C9.00293333,0.255266667 9.33333333,0.335533333 9.6208,0.496533333 C9.90241786,0.651744158 10.1329405,0.885346953 10.2844,1.169 C10.4393333,1.45646667 10.5168,1.785 10.5168,2.15366667 C10.5168,2.52233333 10.4393333,2.8504 10.2844,3.13833333 C10.1328681,3.42181402 9.90235227,3.65524778 9.6208,3.81033333 C9.3338,3.97133333 9.00293333,4.0516 8.62866667,4.0516 L7.32853333,4.0516 L7.32853333,0.255266667 L7.32853333,0.255266667 Z M8.62866667,3.374 C8.96746667,3.374 9.23066667,3.26246667 9.41733333,3.04033333 C9.60493333,2.81773333 9.69826667,2.52233333 9.69826667,2.15366667 C9.69826667,1.785 9.60493333,1.48913333 9.4178,1.267 C9.2302,1.04393333 8.96746667,0.933333333 8.62866667,0.933333333 L8.1312,0.933333333 L8.1312,3.374 L8.62866667,3.374 Z" id="a"></path>
                    </g>
                </g>
            </g>
        </g>
    </g>
</svg>