<?xml version="1.0" encoding="UTF-8"?>
<svg width="28px" height="28px" viewBox="0 0 28 28" version="1.1" xmlns="http://www.w3.org/2000/svg" xmlns:xlink="http://www.w3.org/1999/xlink">
    <title>TUSD</title>
    <g id="页面-1" stroke="none" stroke-width="1" fill="none" fill-rule="evenodd">
        <g id="Buy-and-sell" transform="translate(-480.000000, -689.000000)" fill-rule="nonzero">
            <g id="TUSD" transform="translate(480.000000, 689.000000)">
                <path d="M14,28 C6.3,28 0,21.7 0,14 C0,6.3 6.3,0 14,0 C21.7,0 28,6.3 28,14 C28,21.7 21.7,28 14,28 Z" id="路径" fill="#002868"></path>
                <path d="M21.056,22.4 L6.944,22.4 C6.202607,22.3978853 5.60211471,21.797393 5.6,21.056 L5.6,6.944 C5.60211471,6.202607 6.202607,5.60211471 6.944,5.6 L21.056,5.6 C21.797393,5.60211471 22.3978853,6.202607 22.4,6.944 L22.4,21.056 C22.3978853,21.797393 21.797393,22.3978853 21.056,22.4 L21.056,22.4 Z" id="路径" fill="#FFFFFF"></path>
                <path d="M8.87845,20.7088 C8.834,20.7088 8.79795,20.66855 8.79795,20.6241 L8.79795,18.3666 C8.79795,18.3225 8.76225,18.28225 8.71815,18.28225 L7.9212,18.28225 C7.8764,18.28225 7.83685,18.24655 7.83685,18.2021 L7.83685,17.766 C7.83685,17.72155 7.8771,17.6813 7.9212,17.6813 L10.374,17.6813 C10.4201624,17.682755 10.457245,17.7198376 10.4587,17.766 L10.4587,18.2021 C10.4587,18.24655 10.41845,18.28225 10.374,18.28225 L9.5816,18.28225 C9.5355743,18.2838853 9.49869471,18.3209179 9.49725,18.36695 L9.49725,20.62445 C9.49725,20.66855 9.4612,20.70845 9.41675,20.70845 L8.87845,20.70845 L8.87845,20.7088 Z M12.90695,17.766 C12.90695,17.72155 12.943,17.6813 12.9871,17.6813 L13.5212,17.6813 C13.5673624,17.682755 13.604445,17.7198376 13.6059,17.766 L13.6059,19.30635 C13.6059,20.21915 13.08965,20.74905 12.2703,20.74905 C11.4555,20.74905 10.9438,20.21915 10.9438,19.30635 L10.9438,17.766 C10.9438,17.72155 10.9795,17.6813 11.0236,17.6813 L11.55805,17.6813 C11.6040757,17.6829353 11.6409553,17.7199679 11.6424,17.766 L11.6424,19.3284 C11.6424,19.77815 11.87375,20.0984 12.27485,20.0984 C12.6756,20.0984 12.90695,19.7778 12.90695,19.3284 L12.90695,17.766 L12.90695,17.766 Z M16.05905,18.6697 C15.988,18.6697 15.9656,18.6431 15.93865,18.5899 C15.8452,18.3715 15.64045,18.2336 15.32895,18.2336 C15.04825,18.2336 14.8127,18.3316 14.8127,18.5185 C14.8127,18.7236 15.0311,18.8083 15.5113,18.8657 C16.24175,18.9504 16.66,19.17335 16.66,19.7519 C16.66,20.40185 16.08985,20.7445 15.3601,20.7445 C14.728,20.7445 14.1848,20.4372 14.1001,19.79215 C14.09135,19.72985 14.1225,19.70745 14.1848,19.70745 L14.6748,19.70745 C14.7371,19.70745 14.7728,19.7344 14.79065,19.78305 C14.85715,19.9969 15.08465,20.16175 15.414,20.16175 C15.70345,20.16175 15.9572,20.05465 15.9572,19.82785 C15.9572,19.55625 15.69015,19.5076 15.1557,19.4404 C14.54145,19.36025 14.11445,19.1821 14.11445,18.6165 C14.11445,18.0509 14.5999,17.64595 15.3608,17.64595 C16.04645,17.64595 16.5228,18.01555 16.6208,18.56785 C16.6341,18.63015 16.61625,18.6704 16.54975,18.6704 L16.05905,18.6704 L16.05905,18.6697 L16.05905,18.6697 Z M17.2655,20.7088 C17.22105,20.7088 17.18535,20.66855 17.18535,20.6241 L17.18535,17.766 C17.18535,17.72155 17.22105,17.6813 17.2655,17.6813 L18.4765,17.6813 C19.37565,17.6813 20.0746,18.3001 20.0746,19.2038 C20.0746,20.0942 19.3844,20.7088 18.47615,20.7088 L17.26515,20.7088 L17.2655,20.7088 Z M18.4765,20.10715 C18.9616,20.10715 19.3396,19.72425 19.3396,19.19435 C19.3396,18.6648 18.96125,18.28155 18.4716,18.28155 L17.969,18.28155 C17.9249,18.28155 17.8892,18.32145 17.8892,18.36625 L17.8892,20.02665 C17.8892,20.07075 17.9249,20.1068 17.96935,20.1068 L18.47685,20.1068 L18.47685,20.10715 L18.4765,20.10715 Z M21.952,16.016 L6.048,16.016 C5.92444775,16.0156157 5.8243843,15.9155523 5.824,15.792 L5.824,6.944 C5.824,6.328 6.328,5.824 6.944,5.824 L21.056,5.824 C21.672,5.824 22.176,6.328 22.176,6.944 L22.176,15.792 C22.176,15.9152 22.0752,16.016 21.952,16.016 L21.952,16.016 Z" id="形状" fill="#002868"></path>
                <path d="M14.82495,14.1995 L13.36895,14.1995 C13.276246,14.1993075 13.2011425,14.124204 13.20095,14.0315 L13.20095,7.8715 C13.20095,7.7791 13.27655,7.7035 13.36895,7.7035 L14.82495,7.7035 C14.91735,7.7035 14.99295,7.7791 14.99295,7.8715 L14.99295,14.0315 C14.99295,14.1239 14.91735,14.1995 14.82495,14.1995 Z" id="路径" fill="#FFFFFF"></path>
                <path d="M17.304,9.4955 L10.696,9.4955 C10.603296,9.49530747 10.5281925,9.42020397 10.528,9.3275 L10.528,7.8715 C10.528,7.7791 10.6036,7.7035 10.696,7.7035 L17.304,7.7035 C17.3964,7.7035 17.472,7.7791 17.472,7.8715 L17.472,9.3275 C17.472,9.4199 17.3964,9.4955 17.304,9.4955 L17.304,9.4955 Z" id="路径" fill="#FFFFFF"></path>
            </g>
        </g>
    </g>
</svg>