<?xml version="1.0" encoding="UTF-8"?>
<svg width="28px" height="28px" viewBox="0 0 28 28" version="1.1" xmlns="http://www.w3.org/2000/svg" xmlns:xlink="http://www.w3.org/1999/xlink">
    <title>USDT</title>
    <g id="页面-1" stroke="none" stroke-width="1" fill="none" fill-rule="evenodd">
        <g id="Buy-and-sell" transform="translate(-480.000000, -601.000000)" fill-rule="nonzero">
            <g id="USDT" transform="translate(480.000000, 601.000000)">
                <path d="M0,14 C0,21.7319865 6.2680135,28 14,28 C21.7319865,28 28,21.7319865 28,14 C28,6.2680135 21.7319865,0 14,0 C6.2680135,0 0,6.2680135 0,14 Z" id="路径" fill="#22A079"></path>
                <polygon id="路径" fill="#FFFFFF" points="20.566 7.056 7.308 7.056 7.308 10.262 12.348 10.262 12.348 14.966 15.54 14.966 15.54 10.262 20.566 10.262"></polygon>
                <path d="M22.428,14.238 C22.428,13.188 18.648,12.348 13.972,12.348 C9.296,12.348 5.516,13.202 5.516,14.238 C5.516,15.162 8.456,15.932 12.348,16.1 L12.348,22.848 L15.54,22.848 L15.54,16.1 C19.46,15.932 22.428,15.162 22.428,14.238 Z M13.972,15.47 C9.814,15.47 6.44,14.812 6.44,14 C6.44,13.188 9.814,12.53 13.972,12.53 C18.13,12.53 21.504,13.188 21.504,14 C21.504,14.812 18.13,15.47 13.972,15.47 Z" id="形状" fill="#FFFFFF"></path>
            </g>
        </g>
    </g>
</svg>